<svg width="100" height="100" viewBox="0 0 100 100" fill="none" xmlns="http://www.w3.org/2000/svg">
<path d="M20 44L59.2283 44V73.9488L23.4772 73.6785V78.2436L20 78.2165V44Z" fill="white"/>
<path d="M57.7795 49.75L72.4045 52.875L79.549 68.625V78.5977H76.33V73.9828L57.7795 73.6424V49.75Z" fill="white"/>
<path fill-rule="evenodd" clip-rule="evenodd" d="M33.6714 55.1229C33.0953 55.3072 32.7765 55.5058 32.4245 55.9C32.1404 56.218 31.7261 56.9005 31.7261 57.0504C31.7261 57.0776 33.5382 57.0998 35.7531 57.0998H39.7799L40.1751 56.482C40.6271 55.7753 40.9382 55.4613 41.4526 55.1923L41.8145 55.0029L37.9239 55.005C35.0428 55.0066 33.9394 55.0371 33.6714 55.1229ZM42.5383 55.0807C42.104 55.1881 41.566 55.5036 41.2547 55.8334C41.0373 56.0636 36.0154 64.5271 35.3535 65.7786L35.2408 65.9918L36.4467 65.9617C37.8289 65.9271 38.215 65.792 38.8584 65.1176C39.0855 64.8795 40.2026 62.9804 41.9058 59.9369C43.3846 57.2943 44.6128 55.1013 44.6349 55.0635C44.6861 54.9764 42.9009 54.991 42.5383 55.0807ZM48.7626 55.1275C48.3408 55.2608 47.7458 55.671 47.4825 56.0099C47.2953 56.2509 41.6788 65.8498 41.6788 65.9287C41.6788 65.9554 42.1812 65.9773 42.7953 65.9773C43.8516 65.9773 43.9407 65.9627 44.448 65.7063C44.7429 65.5572 45.1122 65.2999 45.2688 65.1343C45.5051 64.8845 50.7713 55.6436 50.9582 55.1508C51.0117 55.0099 50.9273 54.9954 50.0803 55.001C49.5649 55.0044 48.9719 55.0612 48.7626 55.1275ZM43.1471 58.767L41.6749 61.3934L41.6995 63.18L41.724 64.9666L43.1962 62.3433L44.6682 59.72L44.6438 57.9304L44.6193 56.1406L43.1471 58.767ZM49.4825 58.8456L48.0122 61.4654V63.7327V66L48.4961 65.9594C49.4233 65.8816 50.3467 65.1803 50.7658 64.2354L51 63.7076L50.9764 59.9666L50.9528 56.2257L49.4825 58.8456ZM35.7977 57.6128C35.2077 57.7726 34.7244 58.0773 34.3915 58.4993C34.2584 58.6681 33.2159 60.4094 32.0748 62.3688L30 65.9315L31.0975 65.9574C32.1148 65.9811 32.2325 65.9658 32.707 65.7464C33.3788 65.436 33.7311 65.0816 34.2521 64.1927C34.8814 63.1189 37.9691 57.5712 37.9691 57.5144C37.9691 57.4089 36.2655 57.486 35.7977 57.6128Z" fill="#97D3DF"/>
<path d="M62.7352 64.342L75.8127 66.7193L72.2135 57.3667L62.7352 64.342Z" fill="#143463" fill-opacity="0.2"/>
<path d="M62.7352 73.6425V52.401L58.085 51.554V73.6425H23.2084V78.2927H32.5088V81.7803L35.9965 84.1054L39.4841 81.7803V78.2927H62.7352V81.7803L66.2228 84.1054L69.7105 81.7803V78.2927H76.6858V73.6425H62.7352Z" fill="#143463" fill-opacity="0.2"/>
<path d="M23.2084 73.6424H58.085M23.2084 73.6424V78.2926H27.8586M23.2084 73.6424L23.2084 45.7411H58.085V73.6424M58.085 73.6424H76.6858V78.2926H74.3607M44.1343 78.2926H58.085" stroke="#143463" stroke-linecap="round" stroke-linejoin="round"/>
<path d="M32.5088 80.0364C32.5088 81.1258 33.0533 82.1432 33.9597 82.7475L34.0618 82.8156C35.2333 83.5966 36.7595 83.5966 37.931 82.8156L38.0332 82.7475C38.9396 82.1432 39.4841 81.1258 39.4841 80.0364C39.4841 78.947 38.9396 77.9296 38.0332 77.3253L37.931 77.2572C36.7595 76.4762 35.2333 76.4762 34.0618 77.2572L33.9597 77.3253C33.0533 77.9296 32.5088 78.947 32.5088 80.0364ZM62.7352 80.0364C62.7352 81.1258 63.2796 82.1432 64.1861 82.7475L64.2882 82.8156C65.4597 83.5966 66.9859 83.5966 68.1574 82.8156L68.2595 82.7475C69.166 82.1432 69.7105 81.1258 69.7105 80.0364C69.7105 78.947 69.166 77.9296 68.2595 77.3253L68.1574 77.2572C66.9859 76.4762 65.4597 76.4762 64.2882 77.2572L64.1861 77.3253C63.2796 77.9296 62.7352 78.947 62.7352 80.0364Z" stroke="#143463" stroke-linejoin="round"/>
<path d="M72.2159 57.3667H62.7352V64.342L75.8127 66.7193" stroke="#143463" stroke-linecap="round" stroke-linejoin="round"/>
<path d="M76.6858 73.6425V68.9922L70.873 53.8791L58.085 51.554" stroke="#143463" stroke-linecap="round" stroke-linejoin="round"/>
</svg>
