<svg width="24" height="24" viewBox="0 0 24 24" fill="none" xmlns="http://www.w3.org/2000/svg">
<circle cx="7" cy="15" r="3" fill="white"/>
<ellipse cx="16.5" cy="15" rx="3.5" ry="3" fill="white"/>
<rect x="2" y="4" width="19" height="12" fill="white"/>
<path d="M17.6818 8H15.3636V5H3V14.75H4.54545C4.54545 15.995 5.58091 17 6.86364 17C8.14636 17 9.18182 15.995 9.18182 14.75H13.8182C13.8182 15.995 14.8536 17 16.1364 17C17.4191 17 18.4545 15.995 18.4545 14.75H20V11L17.6818 8ZM6.86364 15.875C6.22227 15.875 5.70455 15.3725 5.70455 14.75C5.70455 14.1275 6.22227 13.625 6.86364 13.625C7.505 13.625 8.02273 14.1275 8.02273 14.75C8.02273 15.3725 7.505 15.875 6.86364 15.875ZM13.8182 7.25H12.2727V12.5H10.7273V7.25H9.18182V12.5H7.63636V7.25H6.09091V12.5H4.54545V6.5H13.8182V7.25ZM16.1364 15.875C15.495 15.875 14.9773 15.3725 14.9773 14.75C14.9773 14.1275 15.495 13.625 16.1364 13.625C16.7777 13.625 17.2955 14.1275 17.2955 14.75C17.2955 15.3725 16.7777 15.875 16.1364 15.875ZM15.3636 11V9.125H17.2955L18.81 11H15.3636Z" fill="#0D23A0"/>
</svg>
