<svg width="113" height="124" viewBox="0 0 113 124" fill="none" xmlns="http://www.w3.org/2000/svg">
<path d="M72.5 11.041C88.5762 11.041 102.897 18.5536 112.146 30.2588C104.079 22.0989 92.8807 17.041 80.5 17.041C55.9233 17.041 36 36.9643 36 61.541C36 86.1177 55.9233 106.041 80.5 106.041C92.881 106.041 104.079 100.982 112.146 92.8223C102.897 104.528 88.5764 112.041 72.5 112.041C44.6096 112.041 22 89.4314 22 61.541C22 33.6506 44.6096 11.041 72.5 11.041Z" fill="#666666" fill-opacity="0.5"/>
<path d="M81.5 24.041C93.4363 24.041 104.07 29.6184 110.938 38.3086C104.948 32.251 96.6334 28.4962 87.4414 28.4961C69.1914 28.4961 54.3965 43.291 54.3965 61.541C54.3965 79.791 69.1914 94.5859 87.4414 94.5859C96.6337 94.5858 104.948 90.8303 110.938 84.7725C104.07 93.463 93.4366 99.041 81.5 99.041C60.7895 99.0408 44 82.2516 44 61.541C44 40.8305 60.7895 24.0412 81.5 24.041Z" fill="#666666"/>
<path d="M61.541 0C81.1271 0 98.5758 9.14997 109.847 23.4082C100.017 13.4699 86.3728 7.31152 71.29 7.31152C41.3401 7.31159 17.0605 31.5911 17.0605 61.541C17.0605 91.491 41.3401 115.77 71.29 115.771C86.373 115.771 100.017 109.611 109.847 99.6729C98.5758 113.931 81.1274 123.082 61.541 123.082C27.5528 123.082 0 95.5292 0 61.541C5.71781e-07 27.5528 27.5528 3.50523e-05 61.541 0Z" fill="#666666" fill-opacity="0.3"/>
</svg>
