<svg width="100" height="100" viewBox="0 0 100 100" fill="none" xmlns="http://www.w3.org/2000/svg">
<path d="M54.9996 17.5H56.0826C56.1237 17.5 56.1651 17.5016 56.2057 17.5049L56.7037 17.5459L56.7389 17.1123C56.833 17.145 56.9241 17.1851 57.0123 17.2314L56.7203 17.5537L57.0905 17.8896C57.1206 17.9171 57.1503 17.9456 57.1783 17.9756L57.4957 18.3154L57.8365 18.6807L58.2008 18.3389L60.0553 20.3223L59.691 20.6641L60.0319 21.0293L60.6666 21.708L61.0074 22.0732L61.3727 21.7314L63.2262 23.7148L62.8619 24.0566L63.2028 24.4219L63.8375 25.1006L64.1783 25.4658L64.5436 25.124L66.3971 27.1074L66.0328 27.4492L66.3737 27.8145L66.691 28.1533C66.7168 28.1809 66.7418 28.21 66.7653 28.2393L67.0553 28.6016L67.0914 29.0654C67.0942 29.1027 67.0953 29.1401 67.0953 29.1777V30.2148H67.5953V33.5059H67.0953V35.5791H67.5953V38.8701H67.0953V40.9434H67.5953V44.2344H67.0953V46.3076H67.5953V49.5996H67.0953V51.6719H67.5953V54.9639H67.0953V56C67.0953 56.0804 67.0888 56.159 67.0768 56.2354L66.9996 56.7295L67.4283 56.7969C67.2266 57.2602 66.8555 57.6313 66.3922 57.833L66.3248 57.4043L65.8307 57.4814C65.7543 57.4934 65.6757 57.5 65.5953 57.5H64.5553V58H61.235V57.5H59.1549V58H55.8356V57.5H53.7555V58H50.4352V57.5H48.3551V58H45.0358V57.5H42.9557V58H39.6354V57.5H38.5953C38.515 57.5 38.4364 57.4934 38.36 57.4814L37.8658 57.4043L37.7975 57.833C37.3344 57.6312 36.9629 57.2601 36.7614 56.7969L37.191 56.7295L37.1139 56.2354L37.1002 56.1191L37.0953 56V54.9717H36.5953V51.7432H37.0953V49.6855H36.5953V46.457H37.0953V44.4004H36.5953V41.1719H37.0953V39.1143H36.5953V35.8857H37.0953V33.8281H36.5953V30.5996H37.0953V28.543H36.5953V25.3145H37.0953V23.2568H36.5953V20.0283H37.0953V19C37.0953 18.9598 37.0972 18.9201 37.1002 18.8809L37.1139 18.7646L37.191 18.2705L36.7614 18.2021C36.963 17.7392 37.3346 17.3677 37.7975 17.166L37.8658 17.5957L38.36 17.5186C38.4364 17.5066 38.515 17.5 38.5953 17.5H39.6783V17H43.3414V17.5H45.5074V17H49.1705V17.5H51.3365V17H54.9996V17.5ZM67.4166 28.3564C67.4427 28.4142 67.4655 28.4732 67.486 28.5332L67.1656 28.5576L67.4166 28.3564Z" stroke="#143463" stroke-opacity="0.4" stroke-linecap="square" stroke-linejoin="round" stroke-dasharray="1 4"/>
<path d="M54.5229 18.5185V31.0463H66.1012" stroke="#143463" stroke-opacity="0.4" stroke-linecap="square" stroke-linejoin="round" stroke-dasharray="1 4"/>
<path d="M44.7219 35.1072H59.4687" stroke="#143463" stroke-opacity="0.4" stroke-linecap="round" stroke-dasharray="1 4"/>
<path d="M44.7219 42.575H59.4687" stroke="#143463" stroke-opacity="0.4" stroke-linecap="round" stroke-dasharray="1 4"/>
<path d="M36.6407 34.7182L36.248 34.0867C35.9685 33.6371 35.5221 33.3167 35.0066 33.1957L23.9138 30.5916C23.3801 30.4663 22.8183 30.5656 22.3599 30.8662L10.3447 38.7459C9.42107 39.3517 9.16336 40.5915 9.7691 41.5151L26.3076 66.7335C26.9092 67.6507 28.1373 67.9123 29.0604 67.3198L43.1089 58.3025" stroke="#143463" stroke-opacity="0.4" stroke-linecap="square" stroke-linejoin="round" stroke-dasharray="1 3"/>
<path d="M22.0531 32.5794L27.7735 41.3021L35.9675 35.9284" stroke="#143463" stroke-opacity="0.4" stroke-linecap="square" stroke-linejoin="round" stroke-dasharray="1 3"/>
<path d="M25.3773 52.7735L35.8136 45.9292" stroke="#143463" stroke-opacity="0.4" stroke-linecap="round" stroke-dasharray="1 3"/>
<path d="M28.2822 57.203L35.2751 52.658" stroke="#143463" stroke-opacity="0.4" stroke-linecap="round" stroke-dasharray="1 3"/>
<path d="M59.4767 58.1634L69.3094 66.2015C70.1792 66.9125 71.464 66.7678 72.1538 65.8811L85.1618 49.1607C85.4766 48.7561 85.624 48.246 85.5735 47.7358L84.4816 36.6978C84.4277 36.1522 84.1521 35.6527 83.7194 35.3161L72.7225 26.7608C71.8507 26.0826 70.5942 26.2395 69.9159 27.1113L67.7303 29.9208" stroke="#143463" stroke-opacity="0.4" stroke-linecap="square" stroke-linejoin="round" stroke-dasharray="1 3"/>
<path d="M82.0596 35.5863L75.8165 43.6111L83.355 49.4758" stroke="#143463" stroke-opacity="0.4" stroke-linecap="square" stroke-linejoin="round" stroke-dasharray="1 4"/>
<path d="M67.7446 47.346L74.082 52.4851" stroke="#143463" stroke-opacity="0.4" stroke-linecap="round" stroke-dasharray="1 4"/>
<path d="M66.7151 53.0307L70.9116 56.5603" stroke="#143463" stroke-opacity="0.4" stroke-linecap="round" stroke-dasharray="1 4"/>
<ellipse cx="51.0953" cy="85.5" rx="30.5" ry="2.5" fill="#143463" fill-opacity="0.4"/>
</svg>
